<svg xmlns="http://www.w3.org/2000/svg" viewBox="0 0 24 24" width="24" height="24"><path d="M17.249 14a1.706 1.706 0 011.75 1.698c0 1.4-1.56 2.791-3.94 4.911l-.058.053-.07-.062c-2.369-2.107-3.934-3.499-3.934-4.902A1.705 1.705 0 0112.747 14a2.005 2.005 0 011.496.68l.755.87.756-.87a2.006 2.006 0 011.495-.68zm0-1a3.02 3.02 0 00-2.25 1.025A3.02 3.02 0 0012.746 13a2.697 2.697 0 00-2.75 2.698c0 1.854 1.7 3.364 4.276 5.655l.725.647.725-.642C18.3 19.062 20 17.552 20 15.698A2.697 2.697 0 0017.249 13zm-5.912 7H7.001a2.003 2.003 0 01-2-2V7h3.01a1 1 0 001-1V3h6.002a2.004 2.004 0 012 2v7.019c.08-.005.157-.019.236-.019.257 0 .513.025.765.074V5a3 3 0 00-3.001-3H8.002L8 2.002a.991.991 0 00-.713.315l-.006-.004-3.02 4.012.013.01a.988.988 0 00-.26.642L4 6.995V18a3 3 0 003.001 3h5.385a32.16 32.16 0 01-1.048-1zM8.011 3.006V6H5.758zm.64 11.513H7.494a.5.5 0 010-1H8.65a.5.5 0 010 1zm5.997-2.54H7.495a.5.5 0 010-1h7.153a.5.5 0 010 1zm0-2.498H7.495a.5.5 0 110-1h7.153a.5.5 0 010 1z" fill="currentColor"/></svg>