<svg xmlns="http://www.w3.org/2000/svg" viewBox="0 0 24 24" width="24" height="24"><path d="M17.183 18.172A8.068 8.068 0 014 12a8.068 8.068 0 0113.148-6.2.501.501 0 00.631-.777A9.07 9.07 0 003 12a9.069 9.069 0 0014.817 6.945.501.501 0 10-.634-.773zm3.813-6.192a.437.437 0 00-.126-.335l-3.078-3.078a.443.443 0 00-.626.626l2.307 2.307H11a.5.5 0 000 1h8.354l-2.179 2.033a.423.423 0 000 .626.499.499 0 00.671 0l3.005-2.804.004-.003.006-.006a.423.423 0 00.136-.33L21 12c0-.007-.004-.013-.004-.02z" fill="currentColor"/></svg>