<svg xmlns="http://www.w3.org/2000/svg" viewBox="0 0 24 24" width="24" height="24"><path d="M20 17.017V5a3 3 0 00-3-3H7a3 3 0 00-3 3v14a3 3 0 003 3h9.01l.001-.002a.99.99 0 00.712-.315l.006.005 3.02-4.013-.013-.01a.988.988 0 00.26-.642zM15 18v3H7a2.002 2.002 0 01-2-2V5a2.002 2.002 0 012-2h10a2.002 2.002 0 012 2v12h-3a1 1 0 00-1 1zm1 2.994V18h2.253zM16.5 15h-5a.5.5 0 010-1h5a.5.5 0 010 1zm-8.479.75a.5.5 0 01-.365-.16l-.771-.826a.5.5 0 01.73-.682l.382.41.866-1.058a.5.5 0 01.774.632l-1.229 1.5a.499.499 0 01-.37.184zm0-4a.5.5 0 01-.365-.16l-.771-.826a.5.5 0 01.73-.682l.382.41.866-1.058a.5.5 0 01.774.632l-1.229 1.5a.499.499 0 01-.37.184zm0-4a.499.499 0 01-.365-.16l-.771-.826a.5.5 0 11.73-.682l.382.41.866-1.058a.5.5 0 11.774.632l-1.229 1.5a.498.498 0 01-.37.184zM16.5 11h-5a.5.5 0 010-1h5a.5.5 0 010 1zm0-4h-5a.5.5 0 010-1h5a.5.5 0 010 1z" fill="currentColor"/></svg>